<svg viewBox="0 0 43 36" xmlns="http://www.w3.org/2000/svg" fill="white">
  <path d="M6.78603 15.4343C6.36698 15.4343 5.96144 15.2743 5.67756 14.9811C5.38016 14.6879 5.21795 14.3014 5.21795 13.8882V10.3029V0H0V10.2895V15.4343H3.63634C4.0554 15.4343 4.46094 15.5942 4.74482 15.8875C5.04221 16.1807 5.20443 16.5672 5.20443 16.9804V19.0196C5.20443 19.4328 5.04221 19.8327 4.74482 20.1126C4.44742 20.4058 4.0554 20.5657 3.63634 20.5657H0V25.7105V36H5.21795V25.7105V22.1251C5.21795 21.712 5.38016 21.3121 5.67756 21.0322C5.97495 20.739 6.36698 20.579 6.78603 20.579H10.4224V15.4343H6.78603Z" />
  <path d="M27.8201 20.1259C27.5227 19.8327 27.3605 19.4461 27.3605 19.0329V16.9804C27.3605 16.5672 27.5227 16.1673 27.8201 15.8875C28.1175 15.5942 28.5095 15.4343 28.9285 15.4343H32.5649V10.2895V0H27.3469V10.2895V13.8749C27.3469 14.288 27.1847 14.6879 26.8873 14.9678C26.644 15.2077 26.3331 15.3543 25.9951 15.4076C25.0894 13.8749 23.4132 12.8486 21.4936 12.8486C19.5741 12.8486 17.8978 13.8749 16.9921 15.4076C16.6542 15.3543 16.3433 15.2077 16.0999 14.9678C15.8025 14.6746 15.6403 14.288 15.6403 13.8749V10.2895V0H10.4224V10.2895V15.4343H14.0587C14.4778 15.4343 14.8833 15.5942 15.1672 15.8875C15.4646 16.1807 15.6268 16.5672 15.6268 16.9804V19.0196C15.6268 19.4328 15.4646 19.8327 15.1672 20.1126C14.8698 20.4058 14.4778 20.5657 14.0587 20.5657H10.4224V25.7105V36H15.6403V25.7105V22.1251C15.6403 21.712 15.8025 21.3121 16.0999 21.0322C16.3433 20.7923 16.6542 20.6457 16.9921 20.5924C17.8978 22.1251 19.5741 23.1514 21.4936 23.1514C23.4132 23.1514 25.0894 22.1251 25.9951 20.5924C26.3331 20.6457 26.644 20.7923 26.8873 21.0322C27.1847 21.3254 27.3469 21.712 27.3469 22.1251V25.7105V36H32.5649V25.7105V20.579H28.9285C28.5095 20.579 28.1175 20.4191 27.8201 20.1259Z" />
  <path d="M38.0312 0V10.2895V13.8749C38.0312 14.288 37.869 14.6879 37.5716 14.9678C37.2742 15.261 36.8822 15.421 36.4631 15.421H32.8268V20.579H36.4496C36.8687 20.579 37.2742 20.739 37.5581 21.0322C37.8555 21.3254 38.0177 21.712 38.0177 22.1251V25.7105V36H43.2357V25.7105V20.579H39.5993C39.1803 20.579 38.7747 20.4191 38.4908 20.1259C38.1934 19.8327 38.0312 19.4461 38.0312 19.0329V16.9804C38.0312 16.5672 38.1934 16.1673 38.4908 15.8875C38.7882 15.5942 39.1803 15.4343 39.5993 15.4343H43.2357V10.2895V0H38.0312Z" />
</svg>
