<svg width="16" height="12" viewBox="0 0 16 12" fill="none" xmlns="http://www.w3.org/2000/svg">
<path fill-rule="evenodd" clip-rule="evenodd" d="M6.81809 5.11936C5.88805 4.88965 5.01006 5.10633 4.60468 5.20638C4.45532 5.24324 4.37011 5.26427 4.37011 5.2413C4.41317 4.98848 4.44602 4.7118 4.48046 4.42187C4.73684 2.26301 5.08048 -0.630485 10.37 0.121722C15.7693 0.889531 15.5738 4.00585 15.4141 6.55023C15.3964 6.83329 15.3791 7.10927 15.3699 7.37414C15.3698 7.60894 14.0736 7.24128 13.156 6.98101C13.0699 6.95657 12.9871 6.93308 12.909 6.91113C12.6157 6.82866 12.0579 6.65746 11.3788 6.44902L11.3787 6.44901C9.95152 6.01095 7.98846 5.40842 6.81809 5.11936ZM4.38306 6.03845C3.16979 6.40185 0.749995 7.6204 0.749995 7.6204C0.749995 7.6204 1.77661 7.25694 2.89618 7.25694C4.3661 7.25694 5.68178 8.30927 6.9646 9.33533C8.12526 10.2637 9.25902 11.1705 10.4558 11.2569C11.7997 11.3297 14.5559 8.49325 14.4625 8.12962C14.0703 8.08186 12.7271 7.64279 11.2831 7.17081L11.2831 7.17081C9.97818 6.74427 8.59103 6.29086 7.74926 6.07508C5.97602 5.62054 5.59633 5.67505 4.38306 6.03845ZM4.55168 8.45676C4.64249 8.21068 2.5517 7.71838 1.18805 8.21068C-0.175608 8.70299 0.460748 9.60513 0.91532 9.60513C1.36989 9.60513 4.46088 8.70284 4.55168 8.45676Z" fill="#9baa34" fill-opacity="0.8"/>
</svg>
