<svg width="36" height="36" viewBox="0 0 36 36" fill="none" xmlns="http://www.w3.org/2000/svg">
<path d="M10.6367 31.2946C10.5081 31.2946 10.3537 31.2946 10.2078 31.2602C10.0706 31.2345 9.9591 31.1486 9.89906 31.0284C9.83902 30.9168 9.83902 30.788 9.89906 30.6679C9.97626 30.4961 10.0878 30.3416 10.2078 30.2214C11.0827 29.3457 11.8804 28.573 12.8754 27.9892C13.3386 27.7145 13.7932 27.3625 14.2993 26.8817C14.8997 26.3065 15.4143 25.86 15.9032 25.4651C16.1949 25.2333 16.4865 24.9758 16.761 24.7268C16.8982 24.6066 17.0269 24.495 17.1555 24.3834L17.1984 24.349C17.2413 24.3061 17.2842 24.2718 17.3271 24.246C17.5844 24.0657 17.816 23.9799 18.0476 23.9799C18.2963 23.9799 18.5365 24.0829 18.7938 24.2803C19.1798 24.598 19.5658 24.9328 19.9346 25.2591L20.0118 25.3278C20.2777 25.5596 20.5436 25.8 20.8095 26.0318C21.2469 26.4267 21.6929 26.8216 22.139 27.1994C22.4049 27.4312 22.7051 27.6372 22.9881 27.8347L23.1683 27.9635C23.3141 28.0665 23.477 28.1781 23.6229 28.2811L23.6486 28.2983C23.8544 28.4357 24.0689 28.5816 24.2747 28.7276C24.5149 28.9079 24.7379 29.1053 24.9523 29.3114C25.2354 29.5689 25.4927 29.8265 25.7415 30.0669C25.853 30.1785 25.9645 30.2987 26.0674 30.4275C26.1274 30.5133 26.1789 30.6163 26.2046 30.728C26.239 30.8653 26.2132 31.0027 26.136 31.0971C26.0674 31.1916 25.9559 31.2517 25.8187 31.2602C25.7157 31.2602 25.6128 31.2688 25.4841 31.2688C25.3984 31.2688 25.3126 31.2688 25.2268 31.2688H25.1239H24.9609H24.6007C24.5149 31.2688 24.4463 31.2688 24.3777 31.2688H24.3348C24.0603 31.2688 23.8373 31.1658 23.64 30.9598C23.5371 30.8481 23.4256 30.7365 23.3141 30.6249C23.0653 30.3674 22.808 30.1098 22.5764 29.8265C22.1304 29.277 21.6072 28.7361 20.981 28.1867C20.6379 27.8862 20.2777 27.5943 19.926 27.311C19.6344 27.0792 19.3084 26.813 18.9997 26.5469C18.7681 26.3494 18.4164 26.2292 18.0561 26.2292C17.6959 26.2292 17.3528 26.3494 17.1212 26.5555C16.9068 26.7529 16.6666 26.9332 16.4436 27.1049L16.4093 27.1307C16.3149 27.208 16.212 27.2852 16.1177 27.3539C15.4915 27.8519 14.8568 28.4271 14.0677 29.2255C13.9733 29.3285 13.879 29.4316 13.7932 29.5432C13.7246 29.629 13.6559 29.7149 13.5873 29.7921C13.3986 30.0068 13.1928 30.2214 13.0041 30.4275C12.8583 30.582 12.7124 30.7365 12.5752 30.8911C12.3436 31.14 12.052 31.2688 11.7089 31.2688C11.6832 31.2688 11.6574 31.2688 11.6403 31.2688C11.5716 31.2688 11.4945 31.2688 11.4087 31.2688C11.2972 31.2688 11.1857 31.2688 11.0742 31.2688C10.9455 31.2688 10.8254 31.2688 10.7053 31.2688H10.6882L10.6367 31.2946ZM18.0476 9.26454C18.6222 9.24737 19.1969 9.01556 19.6172 8.62922C20.0718 8.20854 20.3206 7.6419 20.3206 7.02376C20.3206 5.69303 19.3427 4.68854 18.0476 4.68854C16.7524 4.68854 15.8089 5.64151 15.7488 6.998C15.7231 7.53888 15.9461 8.09693 16.3664 8.53478C16.8124 8.99839 17.4043 9.26454 18.0047 9.26454H18.0561H18.0476ZM18.0561 5.46122H18.0733C18.708 5.51273 19.1626 5.84756 19.3685 6.39702C19.4971 6.73185 19.4285 7.03234 19.1712 7.2899C18.8367 7.62473 18.4421 7.79644 18.0304 7.79644C17.6187 7.79644 17.1898 7.60756 16.8639 7.25556C16.6237 7.00659 16.5723 6.69751 16.7095 6.3541C16.9239 5.81322 17.3785 5.50415 18.039 5.46122H18.0561ZM0.987171 31.5006C1.53612 31.5006 2.11081 31.5006 2.80557 31.5006C2.9085 31.5006 2.99428 31.5006 3.08005 31.4835C3.37168 31.432 3.56038 31.2602 3.629 30.9855C3.66331 30.8653 3.66331 30.7451 3.66331 30.6078C3.66331 30.333 3.66331 30.0497 3.66331 29.775C3.66331 29.5346 3.66331 29.2942 3.66331 29.0538C3.66331 28.3498 3.629 27.62 3.54323 26.8044C3.5175 26.5297 3.49176 26.2979 3.48319 26.0575C3.44888 24.7611 3.41457 23.396 3.38026 21.988C3.34595 20.4341 3.30306 18.7943 3.26875 16.957C3.2516 16.1242 3.23444 15.1369 3.21729 14.1754V14.1496C3.19156 12.3553 3.16582 10.5008 3.15725 8.66356C3.15725 8.37166 3.19156 8.07117 3.2516 7.77068C3.3631 7.24698 3.78339 6.90356 4.29804 6.90356C4.47816 6.90356 4.64971 6.94649 4.82126 7.03234C4.95849 7.10102 5.07858 7.18688 5.19866 7.28132L6.53673 8.26005C8.00346 9.33322 9.52166 10.4407 11.0055 11.5311C11.666 12.0204 12.3865 12.5184 13.1756 12.9047C13.5959 13.1108 13.999 13.3426 14.3679 13.6001C14.8825 13.9607 15.4057 14.3557 15.8603 14.7077L16.2978 15.0425C16.2978 15.0425 16.3321 15.0682 16.3492 15.094L16.5122 15.2571L16.3235 15.3859C16.1005 15.5319 15.8861 15.6864 15.6716 15.8409C15.3371 16.0813 15.0198 16.3045 14.6852 16.5106L14.608 16.5621L14.5223 16.5278L14.4794 16.5106L13.879 16.0556C13.3129 15.6349 12.7296 15.1884 12.1549 14.7506C11.5545 14.287 10.9455 13.8062 10.3622 13.3426C9.87333 12.9562 9.37584 12.5613 8.87835 12.175L8.35513 11.7629C7.58317 11.1705 6.79405 10.5523 6.04782 9.89127C5.8677 9.73673 5.67042 9.59078 5.47314 9.45341L5.40452 9.4019C5.2587 9.29888 5.09573 9.24737 4.93276 9.24737C4.79552 9.24737 4.6926 9.29888 4.62398 9.39332C4.56394 9.47917 4.52105 9.55644 4.48674 9.63371C4.26373 10.2776 4.41812 11.2306 5.05285 11.6599C5.20724 11.7629 5.36163 11.8745 5.5246 11.9775C5.7905 12.1578 6.06498 12.3467 6.33945 12.527C6.59677 12.6815 6.86267 12.836 7.11999 12.982C7.32585 13.0936 7.53171 13.2138 7.72898 13.334C7.94342 13.4628 8.14928 13.6087 8.34656 13.7461L8.6725 13.9693C8.93839 14.1582 9.22145 14.3471 9.48735 14.5445C9.68463 14.6905 9.89048 14.8536 10.0878 15.0081C10.1821 15.0854 10.2765 15.1627 10.3708 15.24L11.2114 15.901C11.7947 16.356 12.3951 16.8282 12.9783 17.2919C12.9955 17.309 13.0126 17.3176 13.047 17.3434L13.2528 17.4893L13.0555 17.6439C13.0041 17.6782 12.9612 17.7211 12.9097 17.7555C12.6352 17.9443 12.3693 18.1332 12.0949 18.3221C11.5974 18.6655 11.0827 19.0261 10.5767 19.3781C10.0449 19.7559 9.46161 20.1851 8.81831 20.6917C8.45806 20.9664 8.10639 21.2068 7.76329 21.4128C7.43735 21.6017 7.11999 21.8163 6.81978 22.031C6.35661 22.3658 6.12502 22.8037 6.13359 23.336C6.13359 23.5678 6.13359 23.7996 6.13359 24.0314C6.13359 24.2374 6.18506 24.4349 6.27941 24.6152C6.36518 24.7783 6.52815 24.8727 6.70828 24.8727C6.76832 24.8727 6.81978 24.8641 6.87983 24.8384C7.01706 24.7869 7.14572 24.7096 7.25723 24.6152C7.72898 24.2288 8.19216 23.8425 8.73254 23.3789C8.87835 23.2501 9.02417 23.1213 9.16998 22.9925C9.43588 22.7607 9.70178 22.5203 9.99341 22.2971C11.1599 21.4128 12.3693 20.5028 13.4415 19.7043L14.4022 18.9832L14.4622 18.9402C14.548 18.8801 14.6166 18.82 14.7281 18.7857L14.8225 18.76L15.0626 18.9488C15.2599 19.1034 15.4658 19.2665 15.6631 19.4296C15.7403 19.4983 15.826 19.5584 15.9118 19.6185C16.0919 19.7559 16.2635 19.8846 16.4093 20.0478L16.5208 20.1765L16.4093 20.3053C16.3321 20.3912 16.2377 20.4599 16.152 20.52L16.0919 20.5715C14.2478 21.9966 12.3693 23.4476 10.4995 24.8899C10.4223 24.95 10.3365 25.0015 10.2507 25.0616L10.1907 25.1045C10.1221 25.1475 10.0535 25.1904 9.97626 25.2333L9.95052 25.2505C9.80471 25.3449 9.65889 25.4308 9.51308 25.5338C9.21287 25.7484 8.92124 25.9717 8.63819 26.1863L8.44091 26.3322C7.90911 26.7358 7.36874 27.1479 6.82836 27.5685C6.74259 27.6372 6.63108 27.7231 6.53673 27.8175C6.29656 28.0579 6.15933 28.3326 6.12502 28.6417C6.09928 28.9765 6.12502 29.32 6.19364 29.6634C6.27941 30.0755 6.51958 30.3073 6.85409 30.3073C7.00849 30.3073 7.16288 30.2558 7.33443 30.1613C7.73756 29.9209 8.09781 29.629 8.43233 29.2942C9.05848 28.6503 9.72751 28.0407 10.3794 27.4569C10.5938 27.268 10.7997 27.0706 11.0141 26.8817C11.8032 26.152 12.6352 25.4651 13.4758 24.8298C14.2392 24.2546 14.994 23.6622 15.7317 23.087C16.152 22.7607 16.5637 22.4345 16.984 22.1082L17.1641 21.9623C17.3957 21.782 17.6358 21.5931 17.9017 21.4214L18.0133 21.3527L18.2706 21.5416C18.4764 21.6876 18.6651 21.8335 18.8624 21.9795C19.2227 22.2628 19.6001 22.5547 19.9517 22.838C20.3635 23.1642 20.7923 23.4991 21.2212 23.8339C21.4957 24.0485 21.7701 24.2546 22.0446 24.4606C23.0739 25.2419 24.1289 26.0489 25.081 26.959C25.3898 27.2595 25.7243 27.56 26.0245 27.8175C26.522 28.264 27.0366 28.719 27.5084 29.2169C27.6456 29.3629 27.8 29.526 27.9802 29.6634C28.2718 29.8866 28.512 30.0583 28.7779 30.2042C28.9065 30.2729 29.0352 30.3159 29.1553 30.3159C29.4383 30.3159 29.6613 30.127 29.7557 29.8007C29.8329 29.5346 29.8586 29.2599 29.8929 28.9508C29.9358 28.5215 29.7814 28.1266 29.4469 27.8175C29.2925 27.6716 29.121 27.5342 28.9494 27.4054L28.6749 27.1908C28.186 26.8044 27.68 26.4095 27.1739 26.0318L27.0881 25.9631C26.7622 25.7227 26.4362 25.4651 26.0846 25.2505C25.7844 25.0702 25.527 24.8899 25.2954 24.7096L25.2611 24.6839C24.0517 23.7395 22.7994 22.7693 21.53 21.7906C21.1869 21.5244 20.8352 21.2583 20.4921 20.9921C20.2262 20.7947 19.9689 20.5886 19.703 20.3912L19.6687 20.3654C19.6687 20.3654 19.6172 20.3311 19.6001 20.3139L19.4371 20.168L19.8059 19.8675C20.2005 19.5412 20.6122 19.2064 21.0153 18.8801C21.0411 18.863 21.1011 18.8115 21.1354 18.7943L21.2298 18.7342L21.3241 18.7857C21.3241 18.7857 21.427 18.8544 21.4785 18.8887C21.5128 18.9145 21.5471 18.9402 21.5814 18.966L22.4478 19.6185C23.1254 20.125 23.8201 20.6573 24.5063 21.1724C24.7036 21.3184 24.9095 21.4643 25.1153 21.6103C25.4584 21.8507 25.8101 22.1082 26.1446 22.383C26.6678 22.8122 27.191 23.2673 27.6971 23.7051L27.7143 23.7223C27.9973 23.9713 28.2889 24.2202 28.5806 24.4692C28.7264 24.598 28.8808 24.701 29.0266 24.7697C29.1124 24.8126 29.2067 24.8384 29.2925 24.8384C29.5069 24.8384 29.6785 24.701 29.7557 24.4606C29.8157 24.2889 29.8414 24.1 29.8672 23.9283C29.8758 23.8425 29.8758 23.7566 29.8758 23.6622C29.8758 23.6021 29.8758 23.5506 29.8758 23.4991C29.9101 22.838 29.6356 22.3057 29.0695 21.9194C28.7864 21.7219 28.5205 21.5502 28.2632 21.3957C27.903 21.1724 27.517 20.932 27.1653 20.6401C26.8565 20.3826 26.522 20.125 26.1446 19.8589C25.6385 19.4983 25.1153 19.1377 24.6093 18.7857L24.5063 18.7084C24.0775 18.408 23.64 18.1075 23.2111 17.7984C23.1768 17.7726 23.1425 17.7555 23.1082 17.7297C23.0396 17.6868 22.9881 17.6524 22.9452 17.6181L22.7908 17.4893L22.9367 17.3434C22.9367 17.3434 22.9624 17.3176 22.9796 17.309C23.2455 17.0944 23.4513 16.9313 23.6486 16.7767C24.1289 16.4161 24.6007 16.0298 25.0724 15.652C25.9731 14.9223 26.908 14.1754 27.9115 13.5486L28.126 13.4113C28.349 13.2653 28.5892 13.1194 28.8207 12.982L28.9666 12.8961C29.6356 12.5184 30.3218 12.1235 30.9479 11.6341C31.514 11.1962 31.7199 10.6039 31.5827 9.77966C31.5655 9.65088 31.4969 9.5221 31.4283 9.4019L31.4111 9.37615C31.3511 9.26454 31.2396 9.20444 31.1195 9.20444C31.1023 9.20444 31.0766 9.20444 31.0594 9.20444C30.9479 9.22161 30.8107 9.24737 30.6906 9.31605C30.5534 9.39332 30.4076 9.49634 30.2446 9.62512C29.9958 9.83117 29.7385 10.0372 29.4812 10.2519C29.0952 10.5695 28.7007 10.9043 28.2975 11.222C27.1396 12.1406 25.913 13.0936 24.9266 13.8577C23.8888 14.6647 22.8509 15.4546 21.7873 16.2702C21.7015 16.3389 21.6072 16.3904 21.5386 16.4333L21.4356 16.5106L21.3241 16.4419C20.9467 16.2187 19.9689 15.5662 19.6687 15.3344L19.48 15.197L19.6601 15.0425C19.7287 14.9824 19.7973 14.9309 19.866 14.8794C20.0204 14.7592 20.1833 14.6476 20.3377 14.5274L20.4492 14.4501C20.7237 14.244 21.0068 14.038 21.2812 13.8234C21.6586 13.54 22.0789 13.2653 22.585 12.9992C22.6708 12.9562 22.748 12.9133 22.8423 12.8704C22.9967 12.7931 23.1511 12.7159 23.2969 12.63L23.477 12.527C23.7515 12.3724 24.0431 12.2093 24.3005 12.0119C25.6557 11.0245 27.0366 10.02 28.3661 9.04132L30.1331 7.74493C30.4161 7.53888 30.7249 7.31566 31.0423 7.09244C31.2481 6.94649 31.4626 6.87781 31.677 6.87781C31.7285 6.87781 31.7714 6.87781 31.8228 6.88639C32.2603 6.94649 32.5691 7.20405 32.7234 7.6419C32.8349 7.95098 32.835 8.26005 32.835 8.57771V10.3978C32.8178 11.9088 32.8006 13.4714 32.7835 15.0081C32.7835 15.6778 32.7578 16.3646 32.732 17.0429C32.7234 17.3605 32.7149 17.6868 32.7063 18.0044V18.3221C32.672 19.1463 32.6548 19.9705 32.6377 20.7947L32.5862 22.8294C32.5605 23.9026 32.5347 24.9758 32.509 26.0489C32.509 26.3237 32.4833 26.6241 32.4661 26.959C32.4661 27.0792 32.449 27.208 32.4318 27.3453C32.4147 27.5342 32.3975 27.7317 32.3889 27.9205C32.3718 28.5129 32.3718 29.1053 32.3718 29.6805V30.0669C32.3718 30.2987 32.3718 30.5562 32.3804 30.8224C32.4061 31.2517 32.6462 31.5006 33.058 31.5092C33.4954 31.5178 33.8985 31.5264 34.2931 31.5264C34.6448 31.5264 34.9793 31.5264 35.3052 31.5178C35.8456 31.5092 36 31.3461 36 30.788C36 30.1699 36 29.5689 35.9056 28.968C35.8199 28.4185 35.7427 27.8604 35.6741 27.3196L35.5969 26.7443C35.5797 26.6413 35.5711 26.5383 35.5711 26.4267L35.5454 25.448C35.5282 24.6839 35.5025 23.8854 35.5025 23.1041C35.4854 21.3527 35.4768 19.567 35.4682 17.8413C35.4596 16.0899 35.451 14.2784 35.4339 12.4926C35.4339 11.8659 35.4854 11.3079 35.6226 10.8013C35.7684 10.2261 35.8456 9.59937 35.8628 8.82668C35.8885 7.65907 35.8971 6.48288 35.9056 5.34961L35.9228 4.00171C35.9228 3.90727 35.9228 3.82142 35.9228 3.73556C35.9142 3.38356 35.7598 3.126 35.4596 2.96288C34.9707 2.69673 34.4732 2.55937 33.9672 2.55937C33.5898 2.55937 33.1952 2.63663 32.8006 2.78259C32.6977 2.82551 32.5948 2.8942 32.4833 2.99722C32.3718 3.10883 32.2688 3.23761 32.1745 3.37498C32.063 3.54668 31.9172 3.70122 31.7456 3.83C31.3854 4.10473 31.0251 4.38805 30.6649 4.67137C29.8843 5.28093 29.0781 5.90766 28.2632 6.50005C27.1653 7.30707 26.1789 8.04541 25.2526 8.91254C24.918 9.22161 24.5406 9.49634 24.2061 9.74532C23.5113 10.2519 22.7994 10.7584 22.1132 11.2563L21.6415 11.5912C20.3978 12.4755 19.3599 13.2224 18.3735 13.9178C18.2877 13.9779 18.202 14.0294 18.0905 14.0981L17.9961 14.1496L17.8674 14.0723C17.7731 14.0122 17.6787 13.9521 17.593 13.892C15.9118 12.6901 14.1277 11.4195 12.3693 10.1574C11.6231 9.62512 11.0141 9.16151 10.448 8.62922C10.0363 8.24288 9.59027 7.83078 9.10136 7.48737C7.96915 6.68034 6.84552 5.81322 5.75619 4.98044L5.67899 4.92034C5.37021 4.67995 5.05285 4.43956 4.73548 4.19917C4.28088 3.85576 3.92063 3.55527 3.64616 3.126C3.50892 2.90278 3.27733 2.79976 3.11436 2.73966C2.77126 2.61946 2.41959 2.55078 2.06792 2.55078C1.71625 2.55078 1.38173 2.61088 1.03864 2.73107C0.24094 3.02298 0.0522376 3.29771 0.103702 4.15624C0.103702 4.20776 0.103702 4.25068 0.120857 4.3022C0.120857 4.34512 0.129434 4.38805 0.129434 4.43098V4.54259C0.146589 4.67137 0.155166 4.79156 0.155166 4.91176C0.163743 6.15663 0.180898 7.48737 0.180898 8.8181C0.180898 9.4019 0.249517 9.99429 0.378178 10.5781C0.549725 11.3765 0.626921 12.1406 0.618344 12.9047C0.592612 14.742 0.575457 16.6136 0.56688 18.4251V18.4766C0.56688 19.4554 0.549725 20.4341 0.541148 21.4128C0.53257 22.7607 0.506838 24.2031 0.481106 25.9631C0.481106 26.2292 0.455374 26.4782 0.421065 26.7014L0.386755 26.9075C0.232362 27.9635 0.0693924 29.0624 0.0179282 30.1527V30.2472C0.000773421 30.4446 -0.00780395 30.6507 0.00935079 30.8481C0.0350829 31.2431 0.20663 31.432 0.601189 31.4663C0.72985 31.4835 0.867088 31.4835 0.961439 31.4835H0.978594L0.987171 31.5006ZM18.0476 16.3303L18.1419 16.3904C18.6909 16.7424 19.3856 17.2661 19.703 17.5666L19.8574 17.704L19.703 17.8413C19.3599 18.1504 18.5965 18.7342 18.1419 19.0175L18.0476 19.0776L17.9532 19.0175C17.5758 18.7943 16.7352 18.1761 16.3492 17.8241L16.1949 17.6782L16.3578 17.5408C16.761 17.1974 17.6015 16.5964 17.9618 16.3818L18.0561 16.3217L18.0476 16.3303ZM18.0304 31.2774C18.3478 31.2774 18.6308 31.1658 18.8367 30.9512C19.0254 30.7537 19.1283 30.4876 19.1283 30.2042C19.1112 29.5603 18.6566 29.071 18.0561 29.071H18.0304C17.3785 29.0881 16.9582 29.526 16.9325 30.2214C16.9239 30.4961 17.0183 30.7451 17.1984 30.934C17.4043 31.1486 17.713 31.2774 18.039 31.2774H18.0304Z" fill="white"/>
</svg>
