<svg xmlns="http://www.w3.org/2000/svg" viewBox="0 0 124 47" width="100%" height="100%">
  <g fill="none" fill-rule="evenodd">
    <path fill="#3D474D" fill-rule="nonzero" d="M53.9877647,17.2202353 L57.3971765,17.2202353 L57.3971765,19.9856471 L57.4729412,19.9856471 C57.9022767,19.025956 58.6472888,18.2493755 59.708,17.6558824 C60.7687112,17.0623892 61.9935617,16.7656471 63.3825882,16.7656471 C64.2412592,16.7656471 65.068349,16.898234 65.8638824,17.1634118 C66.6594157,17.4285896 67.3539186,17.8389776 67.9474118,18.3945882 C68.5409049,18.9501989 69.0144296,19.6636427 69.368,20.5349412 C69.7215704,21.4062397 69.8983529,22.4353666 69.8983529,23.6223529 L69.8983529,35.1764706 L66.4889412,35.1764706 L66.4889412,24.5694118 C66.4889412,23.7359958 66.3752953,23.022552 66.148,22.4290588 C65.9207047,21.8355657 65.617649,21.3557273 65.2388235,20.9895294 C64.8599981,20.6233315 64.4243554,20.3581577 63.9318824,20.194 C63.4394093,20.0298423 62.9280027,19.9477647 62.3976471,19.9477647 C61.6905063,19.9477647 61.0338854,20.0614106 60.4277647,20.2887059 C59.821644,20.5160011 59.2912964,20.8758799 58.8367059,21.3683529 C58.3821154,21.860826 58.0285503,22.4858786 57.776,23.2435294 C57.5234497,24.0011803 57.3971765,24.8977203 57.3971765,25.9331765 L57.3971765,35.1764706 L53.9877647,35.1764706 L53.9877647,17.2202353 Z M76.0952741,26.1983529 C76.0952741,27.107534 76.2341746,27.9472511 76.5119799,28.7175294 C76.7897853,29.4878078 77.1812323,30.1444287 77.6863329,30.6874118 C78.1914334,31.2303949 78.8101724,31.6597239 79.5425682,31.9754118 C80.274964,32.2910996 81.0957401,32.4489412 82.0049211,32.4489412 C82.9141021,32.4489412 83.7348782,32.2910996 84.4672741,31.9754118 C85.1996699,31.6597239 85.8184088,31.2303949 86.3235094,30.6874118 C86.8286099,30.1444287 87.220057,29.4878078 87.4978623,28.7175294 C87.7756676,27.9472511 87.9145682,27.107534 87.9145682,26.1983529 C87.9145682,25.2891719 87.7756676,24.4494548 87.4978623,23.6791765 C87.220057,22.9088981 86.8286099,22.2522772 86.3235094,21.7092941 C85.8184088,21.166311 85.1996699,20.736982 84.4672741,20.4212941 C83.7348782,20.1056063 82.9141021,19.9477647 82.0049211,19.9477647 C81.0957401,19.9477647 80.274964,20.1056063 79.5425682,20.4212941 C78.8101724,20.736982 78.1914334,21.166311 77.6863329,21.7092941 C77.1812323,22.2522772 76.7897853,22.9088981 76.5119799,23.6791765 C76.2341746,24.4494548 76.0952741,25.2891719 76.0952741,26.1983529 Z M72.4585682,26.1983529 C72.4585682,24.8850915 72.704801,23.660241 73.1972741,22.5237647 C73.6897471,21.3872884 74.365309,20.3897298 75.2239799,19.5310588 C76.0826509,18.6723879 77.0928369,17.996826 78.2545682,17.5043529 C79.4162995,17.0118799 80.6664046,16.7656471 82.0049211,16.7656471 C83.3434376,16.7656471 84.5935428,17.0118799 85.7552741,17.5043529 C86.9170054,17.996826 87.9271913,18.6723879 88.7858623,19.5310588 C89.6445333,20.3897298 90.3200951,21.3872884 90.8125682,22.5237647 C91.3050412,23.660241 91.5512741,24.8850915 91.5512741,26.1983529 C91.5512741,27.5116144 91.3050412,28.7427786 90.8125682,29.8918824 C90.3200951,31.0409861 89.6445333,32.0385448 88.7858623,32.8845882 C87.9271913,33.7306317 86.9170054,34.3998799 85.7552741,34.8923529 C84.5935428,35.384826 83.3434376,35.6310588 82.0049211,35.6310588 C80.6664046,35.6310588 79.4162995,35.384826 78.2545682,34.8923529 C77.0928369,34.3998799 76.0826509,33.7306317 75.2239799,32.8845882 C74.365309,32.0385448 73.6897471,31.0409861 73.1972741,29.8918824 C72.704801,28.7427786 72.4585682,27.5116144 72.4585682,26.1983529 Z M103.733607,20.1750588 L98.8467834,20.1750588 L98.8467834,28.3197647 C98.8467834,28.8248653 98.8594107,29.3236446 98.8846658,29.8161176 C98.9099208,30.3085907 99.0046257,30.7505471 99.1687834,31.142 C99.3329411,31.5334529 99.5854876,31.8491361 99.9264305,32.0890588 C100.267373,32.3289816 100.766153,32.4489412 101.422783,32.4489412 C101.826864,32.4489412 102.243566,32.4110592 102.672901,32.3352941 C103.102237,32.259529 103.493684,32.1206285 103.847254,31.9185882 L103.847254,35.0249412 C103.443174,35.2522364 102.91914,35.410078 102.275136,35.4984706 C101.631133,35.5868632 101.132354,35.6310588 100.778783,35.6310588 C99.4655219,35.6310588 98.4490223,35.4479626 97.729254,35.0817647 C97.0094857,34.7155668 96.4791381,34.2420421 96.1381952,33.6611765 C95.7972523,33.0803108 95.5952151,32.4300036 95.5320775,31.7102353 C95.46894,30.990467 95.4373716,30.2643958 95.4373716,29.532 L95.4373716,20.1750588 L91.4976069,20.1750588 L91.4976069,17.2202353 L95.4373716,17.2202353 L95.4373716,12.1818824 L98.8467834,12.1818824 L98.8467834,17.2202353 L103.733607,17.2202353 L103.733607,20.1750588 Z M108.983469,27.4484706 C108.983469,28.2313765 109.153938,28.9448203 109.494881,29.5888235 C109.835824,30.2328267 110.284094,30.7821154 110.839705,31.2367059 C111.395315,31.6912964 112.039309,32.0448615 112.771705,32.2974118 C113.5041,32.549962 114.26174,32.6762353 115.044646,32.6762353 C116.105357,32.6762353 117.027152,32.4300025 117.810057,31.9375294 C118.592963,31.4450564 119.312721,30.7947491 119.969352,29.9865882 L122.545352,31.9564706 C120.651224,34.4062083 117.999486,35.6310588 114.590057,35.6310588 C113.175776,35.6310588 111.894102,35.3911397 110.744999,34.9112941 C109.595895,34.4314486 108.623591,33.768514 107.828057,32.9224706 C107.032524,32.0764271 106.420099,31.0788685 105.990763,29.9297647 C105.561428,28.7806609 105.346763,27.5368694 105.346763,26.1983529 C105.346763,24.8598364 105.580369,23.616045 106.047587,22.4669412 C106.514805,21.3178374 107.158798,20.3202787 107.979587,19.4742353 C108.800375,18.6281918 109.778993,17.9652573 110.915469,17.4854118 C112.051946,17.0055662 113.289423,16.7656471 114.62794,16.7656471 C116.219007,16.7656471 117.563817,17.0434482 118.66241,17.5990588 C119.761004,18.1546694 120.663858,18.8807406 121.370999,19.7772941 C122.078139,20.6738476 122.589546,21.6840336 122.905234,22.8078824 C123.220922,23.9317311 123.378763,25.074504 123.378763,26.2362353 L123.378763,27.4484706 L108.983469,27.4484706 Z M119.742057,24.7209412 C119.716802,23.9632903 119.596843,23.2687875 119.382175,22.6374118 C119.167507,22.0060361 118.845511,21.4567474 118.416175,20.9895294 C117.98684,20.5223114 117.450178,20.156119 116.806175,19.8909412 C116.162172,19.6257634 115.410846,19.4931765 114.552175,19.4931765 C113.718763,19.4931765 112.954806,19.651018 112.260293,19.9667059 C111.565779,20.2823937 110.978609,20.6927818 110.498763,21.1978824 C110.018918,21.7029829 109.646412,22.2648989 109.381234,22.8836471 C109.116056,23.5023953 108.983469,24.1148205 108.983469,24.7209412 L119.742057,24.7209412 Z"/>
    <path fill="#3D474D" d="M0.140306165,4.51833661 L1.51261549,4.51833661 C1.59010444,4.51833661 1.65292165,4.58115382 1.65292165,4.65864278 L1.65292165,5.26788166 L1.65292165,5.26788166 C1.72944607,5.16188486 1.80596946,5.05588965 1.90545135,4.94989285 C2.00493324,4.84389605 2.12354449,4.74925747 2.26128865,4.66597427 C2.39903281,4.58269108 2.55590575,4.5145513 2.73191218,4.4615529 C2.9079186,4.4085545 3.09922707,4.3820557 3.3058433,4.3820557 C3.69611842,4.3820557 4.04238674,4.4615521 4.34465865,4.6205473 C4.64693055,4.7795425 4.87458763,5.02938835 5.02763669,5.37009234 C5.22660048,5.01424595 5.46764914,4.76061456 5.75078992,4.60919056 C6.03393069,4.45776656 6.38211209,4.3820557 6.79534457,4.3820557 C7.17031478,4.3820557 7.48597375,4.44451716 7.74233093,4.56944196 C7.99868812,4.69436676 8.20147509,4.8647162 8.35069793,5.0804954 C8.49992077,5.29627459 8.60705351,5.54990598 8.67209936,5.84139718 C8.73714522,6.13288838 8.76966766,6.44519569 8.76966766,6.77832848 L8.76966766,9.89740757 C8.76966766,9.97489653 8.70685045,10.0377137 8.62936149,10.0377137 L7.18818043,10.0377137 C7.11069148,10.0377137 7.04787427,9.97489653 7.04787427,9.89740757 L7.04787427,6.82375545 L7.04787427,6.82375545 C7.04787427,6.56633466 6.99239481,6.34488038 6.88143424,6.15938598 C6.77047367,5.97389159 6.57342595,5.88114578 6.29028518,5.88114578 C6.09132139,5.88114578 5.92488303,5.9133229 5.79096509,5.9776781 C5.65704716,6.0420333 5.54991442,6.13099356 5.46956366,6.24456156 C5.3892129,6.35812956 5.33182036,6.49062357 5.29738432,6.64204756 C5.26294828,6.79347156 5.24573052,6.95246437 5.24573052,7.11903077 L5.24573052,9.89740757 C5.24573052,9.97489653 5.18291331,10.0377137 5.10542436,10.0377137 L3.6642433,10.0377137 C3.58675434,10.0377137 3.52393713,9.97489653 3.52393713,9.89740757 L3.52393713,7.11903077 L3.52393713,7.11903077 C3.52393713,7.02060517 3.52011096,6.89946779 3.51245851,6.75561499 C3.50480606,6.6117622 3.47802287,6.47548264 3.43210815,6.34677225 C3.38619343,6.21806185 3.31158313,6.1082811 3.20827501,6.0174267 C3.10496689,5.9265723 2.95383321,5.88114578 2.75486942,5.88114578 C2.53294827,5.88114578 2.35311832,5.92089398 2.21537416,6.00039158 C2.07763,6.07988918 1.97241034,6.18588439 1.89971204,6.31838039 C1.82701373,6.45087639 1.77918662,6.60040534 1.75622926,6.76697174 C1.7332719,6.93353814 1.72179339,7.10767312 1.72179339,7.28938192 L1.72179339,9.89740757 C1.72179339,9.97489653 1.65897618,10.0377137 1.58148722,10.0377137 L0.140306165,10.0377137 C0.0628172098,10.0377137 -1.82659155e-17,9.97489653 0,9.89740757 L0,4.65864278 C-9.48966011e-18,4.58115382 0.0628172098,4.51833661 0.140306165,4.51833661 Z M14.8274277,9.2005592 C14.7575508,9.27917058 14.7000121,9.33962071 14.6548115,9.3819096 C14.432937,9.58949171 14.1761366,9.75887964 13.8844068,9.89007608 C13.4635219,10.0793561 13.0273386,10.1739947 12.5758438,10.1739947 C12.1473065,10.1739947 11.7436456,10.1058549 11.3648492,9.96957328 C10.9860527,9.83329168 10.6570022,9.63833621 10.3776876,9.38470101 C10.0983731,9.13106581 9.87836834,8.82632959 9.71766682,8.4704832 C9.5569653,8.1146368 9.47661575,7.71715477 9.47661575,7.27802518 C9.47661575,6.83889558 9.5569653,6.44141355 9.71766682,6.08556716 C9.87836834,5.72972076 10.0983731,5.42498454 10.3776876,5.17134934 C10.6570022,4.91771414 10.9860527,4.72275867 11.3648492,4.58647707 C11.7436456,4.45019547 12.1473065,4.3820557 12.5758438,4.3820557 C12.9737714,4.3820557 13.3353444,4.45019547 13.6605737,4.58647707 C13.9858029,4.72275867 14.2612871,4.91771414 14.4870345,5.17134934 C14.7127819,5.42498454 14.8868726,5.72972076 15.0093118,6.08556716 C15.1317511,6.44141355 15.1929698,6.83889558 15.1929698,7.27802518 L15.1929698,7.62471721 C15.1929698,7.72803582 15.1092135,7.8117921 15.0058949,7.8117921 L11.1984091,7.8117921 L11.1984091,7.8117921 C11.2672812,8.13735369 11.4165018,8.3966634 11.6460754,8.589729 C11.875649,8.78279459 12.1587855,8.87932594 12.4954935,8.87932594 C12.7786343,8.87932594 13.0177698,8.81686448 13.2129074,8.69193968 C13.3333633,8.6148252 13.4443416,8.52400809 13.5458433,8.41948721 C13.5712484,8.39332639 13.60301,8.35731301 13.6411279,8.31144708 C13.6883252,8.25449874 13.7716223,8.24404358 13.8314889,8.28747958 L14.8049311,8.99375745 C14.8676872,9.03924627 14.8816451,9.12700254 14.8361277,9.18973792 C14.833408,9.19348635 14.8305045,9.19709786 14.8274277,9.2005592 Z M33.0573848,9.2005592 C32.987508,9.27917058 32.9299692,9.33962071 32.8847687,9.3819096 C32.6628941,9.58949171 32.4060937,9.75887964 32.1143639,9.89007608 C31.693479,10.0793561 31.2572957,10.1739947 30.805801,10.1739947 C30.3772636,10.1739947 29.9736027,10.1058549 29.5948063,9.96957328 C29.2160098,9.83329168 28.8869593,9.63833621 28.6076447,9.38470101 C28.3283302,9.13106581 28.1083255,8.82632959 27.9476239,8.4704832 C27.7869224,8.1146368 27.7065729,7.71715477 27.7065729,7.27802518 C27.7065729,6.83889558 27.7869224,6.44141355 27.9476239,6.08556716 C28.1083255,5.72972076 28.3283302,5.42498454 28.6076447,5.17134934 C28.8869593,4.91771414 29.2160098,4.72275867 29.5948063,4.58647707 C29.9736027,4.45019547 30.3772636,4.3820557 30.805801,4.3820557 C31.2037285,4.3820557 31.5653015,4.45019547 31.8905308,4.58647707 C32.2157601,4.72275867 32.4912443,4.91771414 32.7169916,5.17134934 C32.942739,5.42498454 33.1168297,5.72972076 33.239269,6.08556716 C33.3617082,6.44141355 33.4229269,6.83889558 33.4229269,7.27802518 L33.4229269,7.62471721 C33.4229269,7.72803582 33.3391706,7.8117921 33.235852,7.8117921 L29.4283663,7.8117921 L29.4283663,7.8117921 C29.4972383,8.13735369 29.6464589,8.3966634 29.8760325,8.589729 C30.1056061,8.78279459 30.3887427,8.87932594 30.7254506,8.87932594 C31.0085914,8.87932594 31.247727,8.81686448 31.4428645,8.69193968 C31.5633204,8.6148252 31.6742987,8.52400809 31.7758004,8.41948721 C31.8012055,8.39332639 31.8329671,8.35731301 31.871085,8.31144708 C31.9182824,8.25449874 32.0015795,8.24404358 32.061446,8.28747958 L33.0348882,8.99375745 C33.0976444,9.03924627 33.1116022,9.12700254 33.0660848,9.18973792 C33.0633651,9.19348635 33.0604616,9.19709786 33.0573848,9.2005592 Z M13.4711764,6.65340431 C13.4788289,6.36569871 13.3831746,6.11963841 13.1842108,5.91521601 C12.9852471,5.71079361 12.7288937,5.60858395 12.4151431,5.60858395 C12.2238318,5.60858395 12.0554804,5.63886829 11.9100837,5.69943789 C11.7646871,5.76000749 11.6403366,5.83761113 11.5370285,5.93225112 C11.4337204,6.02689112 11.3533708,6.13667187 11.2959774,6.26159667 C11.238584,6.38652147 11.2060616,6.51712271 11.1984091,6.65340431 L13.4711764,6.65340431 Z M17.5044054,4.51833661 C17.5818944,4.51833661 17.6447116,4.58115382 17.6447116,4.65864278 L17.6447116,9.89740757 C17.6447116,9.97489653 17.5818944,10.0377137 17.5044054,10.0377137 L16.0632244,10.0377137 C15.9857354,10.0377137 15.9229182,9.97489653 15.9229182,9.89740757 L15.9229182,4.65864278 C15.9229182,4.58115382 15.9857354,4.51833661 16.0632244,4.51833661 L17.5044054,4.51833661 Z M16.7874855,2.02018717 C17.3422136,2.02018717 17.7919096,2.46553717 17.7919096,3.01490425 C17.7919096,3.56427132 17.3422136,4.00962133 16.7874855,4.00962133 C16.2327574,4.00962133 15.7830615,3.56427132 15.7830615,3.01490425 C15.7830615,2.46553717 16.2327574,2.02018717 16.7874855,2.02018717 Z M21.7033744,6.14235087 C21.4508435,5.83193167 21.1179667,5.67672441 20.7047343,5.67672441 C20.5593376,5.67672441 20.4177694,5.71079429 20.2800252,5.77893509 C20.1422811,5.84707589 20.07341,5.96442773 20.07341,6.13099413 C20.07341,6.26727573 20.1441941,6.36759262 20.2857645,6.43194782 C20.4273349,6.49630302 20.6071649,6.55308616 20.8252598,6.60229896 C21.0433547,6.65151176 21.276751,6.70450937 21.5254558,6.76129337 C21.7741605,6.81807737 22.0075568,6.90703763 22.2256517,7.02817683 C22.4437467,7.14931603 22.6235766,7.31398715 22.765147,7.52219515 C22.9067174,7.73040315 22.9775015,8.00864057 22.9775015,8.35691576 C22.9775015,8.71276216 22.8990651,9.00614175 22.7421898,9.23706335 C22.5853145,9.46798495 22.3844406,9.65347656 22.1395621,9.79354376 C21.8946836,9.93361096 21.6191994,10.0320351 21.3131012,10.0888191 C21.0070031,10.1456031 20.7047357,10.1739947 20.4062901,10.1739947 C20.0160149,10.1739947 19.6219195,10.1191043 19.2239919,10.0093219 C18.8260644,9.89953948 18.4893615,9.70458401 18.2138731,9.42444961 L19.2584278,8.27741856 C19.4191293,8.47426976 19.5970462,8.62379872 19.7921838,8.72600991 C19.9873213,8.82822111 20.2149784,8.87932594 20.4751618,8.87932594 C20.6741256,8.87932594 20.8539555,8.85093437 21.0146571,8.79415037 C21.1753586,8.73736637 21.2557081,8.63326394 21.2557081,8.48183994 C21.2557081,8.33798714 21.184924,8.23009916 21.0433536,8.15817276 C20.9017832,8.08624636 20.7219533,8.02567767 20.5038584,7.97646487 C20.2857634,7.92725207 20.0523671,7.87425447 19.8036624,7.81747047 C19.5549576,7.76068647 19.3215613,7.67551175 19.1034664,7.56194375 C18.8853715,7.44837575 18.7055415,7.28749017 18.5639711,7.07928217 C18.4224008,6.87107417 18.3516166,6.59283675 18.3516166,6.24456156 C18.3516166,5.91899996 18.4185746,5.63886977 18.5524925,5.40416257 C18.6864104,5.16945538 18.8624142,4.97639267 19.0805092,4.82496868 C19.2986041,4.67354468 19.5492182,4.56187116 19.8323589,4.48994476 C20.1154997,4.41801836 20.4024624,4.3820557 20.6932556,4.3820557 C21.0605734,4.3820557 21.4317118,4.4350533 21.806682,4.5410501 C22.1816522,4.6470469 22.4992243,4.83632406 22.7594077,5.10888725 L21.7033744,6.14235087 Z M27.1828668,5.88114578 L25.8079948,5.88114578 L25.8079948,5.88114578 L25.8079948,7.72093815 C25.8079948,7.87236215 25.8156471,8.01053448 25.830952,8.13545928 C25.8462569,8.26038407 25.8806925,8.36827205 25.9342596,8.45912645 C25.9878268,8.54998085 26.0700895,8.6200134 26.18105,8.6692262 C26.2920106,8.718439 26.4393181,8.74304503 26.622977,8.74304503 C26.7148064,8.74304503 26.8353308,8.73358117 26.9845536,8.71465317 C27.0314103,8.70870969 27.0812377,8.69590768 27.134036,8.67624714 C27.2066317,8.64935419 27.2873456,8.68626722 27.3143611,8.75881727 C27.3201888,8.77446749 27.323173,8.79103316 27.323173,8.8077332 L27.323173,9.89760534 C27.3232305,9.9606927 27.2811408,10.0160292 27.2203437,10.0328734 C27.0099683,10.0911592 26.8452819,10.1268429 26.7262846,10.1399244 C26.5196684,10.162638 26.3168814,10.1739947 26.1179176,10.1739947 C25.8271244,10.1739947 25.5592925,10.1437103 25.314414,10.0831407 C25.0695355,10.0225711 24.85527,9.92603976 24.6716112,9.79354376 C24.4879523,9.66104776 24.3444709,9.48880555 24.2411628,9.27681195 C24.1378547,9.06481835 24.0862014,8.80740142 24.0862014,8.50455342 L24.0862014,5.88114578 L23.1245598,5.88114578 C23.0470708,5.88114578 22.9842536,5.81832857 22.9842536,5.74083962 L22.9842536,4.65864278 C22.9842536,4.58115382 23.0470708,4.51833661 23.1245598,4.51833661 L24.0862014,4.51833661 L24.0862014,4.51833661 L24.0862014,3.02327178 C24.0862014,2.94578283 24.1490186,2.88296562 24.2265076,2.88296562 L25.6676886,2.88296562 C25.7451776,2.88296562 25.8079948,2.94578283 25.8079948,3.02327178 L25.8079948,4.51833661 L25.8079948,4.51833661 L27.1828668,4.51833661 C27.2603558,4.51833661 27.323173,4.58115382 27.323173,4.65864278 L27.323173,5.74083962 C27.323173,5.81832857 27.2603558,5.88114578 27.1828668,5.88114578 Z M31.6803231,6.65340431 C31.6879755,6.36569871 31.5923213,6.11963841 31.3933575,5.91521601 C31.1943937,5.71079361 30.9380404,5.60858395 30.6242898,5.60858395 C30.4329784,5.60858395 30.264627,5.63886829 30.1192304,5.69943789 C29.9738338,5.76000749 29.8494833,5.83761113 29.7461751,5.93225112 C29.642867,6.02689112 29.5625175,6.13667187 29.5051241,6.26159667 C29.4477307,6.38652147 29.4152082,6.51712271 29.4075558,6.65340431 L31.6803231,6.65340431 Z M34.2493707,4.51833661 L35.6905518,4.51833661 C35.7680407,4.51833661 35.8308579,4.58115382 35.8308579,4.65864278 L35.8308579,5.40416257 L35.8308579,5.40416257 L35.8538152,5.40416257 C36.037474,5.06345858 36.2555657,4.80793441 36.5080967,4.63758242 C36.7606276,4.46723042 37.0781997,4.3820557 37.4608223,4.3820557 C37.5603042,4.3820557 37.6597846,4.38584124 37.7592665,4.39341244 C37.8020299,4.39666701 37.8553983,4.40411857 37.9193717,4.41576714 C37.9862068,4.4277234 38.0347535,4.48590786 38.0347535,4.55380367 L38.0347535,5.81332966 C38.0346293,5.89075005 37.9718677,5.95351168 37.8944473,5.95351168 C37.8832033,5.95351168 37.8720002,5.95215888 37.8610794,5.94948244 C37.78342,5.9304499 37.7207858,5.91713497 37.6731768,5.90953764 C37.5545638,5.89060964 37.4302133,5.88114578 37.3001216,5.88114578 C36.9710661,5.88114578 36.7108866,5.9265723 36.5195753,6.0174267 C36.3282639,6.1082811 36.1809564,6.23509679 36.0776483,6.39787759 C35.9743402,6.56065839 35.9073822,6.75561386 35.8767724,6.98274986 C35.8461626,7.20988585 35.8308579,7.4597317 35.8308579,7.7322949 L35.8308579,9.89740757 C35.8308579,9.97489653 35.7680407,10.0377137 35.6905518,10.0377137 L34.2493707,10.0377137 C34.1718817,10.0377137 34.1090645,9.97489653 34.1090645,9.89740757 L34.1090645,4.65864278 C34.1090645,4.58115382 34.1718817,4.51833661 34.2493707,4.51833661 Z" opacity=".3" transform="translate(53.272)"/>
    <g transform="translate(0 2.706)">
      <path fill="#FFD426" d="M27.0559288,1.42677765 C42.7478254,5.63851218 45.5378021,13.2160818 41.8332364,27.0650668 C38.1286708,40.9140519 31.9300854,46.0790745 16.2381888,41.86734 C0.546292278,37.6556055 -2.24368446,30.0780358 1.46088121,16.2290508 C5.16544689,2.38006578 11.3640323,-2.78495688 27.0559288,1.42677765 Z"/>
      <path fill="#FFF" fill-rule="nonzero" d="M26.8020105,22.3235294 C27.6239402,22.3235294 28.2902458,22.989835 28.2902458,23.8117647 C28.2902458,24.5749851 27.7157272,25.2040195 26.9755702,25.2899876 L26.8020105,25.3 L2.97647059,25.3 C2.15454093,25.3 1.48823529,24.6336944 1.48823529,23.8117647 C1.48823529,23.0485443 2.06275393,22.4195099 2.80291091,22.3335419 L2.97647059,22.3235294 L26.8020105,22.3235294 Z M26.8020105,13.3941176 C27.6239402,13.3941176 28.2902458,14.0604233 28.2902458,14.8823529 C28.2902458,15.6455733 27.7157272,16.2746077 26.9755702,16.3605758 L26.8020105,16.3705882 L2.97647059,16.3705882 C2.15454093,16.3705882 1.48823529,15.7042826 1.48823529,14.8823529 C1.48823529,14.1191325 2.06275393,13.4900982 2.80291091,13.4041301 L2.97647059,13.3941176 L26.8020105,13.3941176 Z M26.8020105,4.46470588 C27.6239402,4.46470588 28.2902458,5.13101152 28.2902458,5.95294118 C28.2902458,6.71616157 27.7157272,7.34519595 26.9755702,7.43116402 L26.8020105,7.44117647 L2.97647059,7.44117647 C2.15454093,7.44117647 1.48823529,6.77487083 1.48823529,5.95294118 C1.48823529,5.18972078 2.06275393,4.5606864 2.80291091,4.47471833 L2.97647059,4.46470588 L26.8020105,4.46470588 Z" transform="translate(6.765 6.765)"/>
    </g>
  </g>
</svg>
