<svg width="1024" height="1024" viewBox="0 0 1024 1024" fill="none" xmlns="http://www.w3.org/2000/svg">
<circle cx="512" cy="512" r="512" fill="#FF0421"/>
<path d="M752.256 360.702H569.064L525.957 666.429H613.661L624.078 592.384H723.815C813.913 592.384 858.812 556.258 868.99 478.931C879.469 399.216 841.752 360.702 752.249 360.702H752.256ZM780.095 473.561C776.504 506.405 757.646 520.733 719.929 520.733H634.162L646.596 432.359H736.393C770.519 432.359 783.391 444.005 780.095 473.561Z" fill="#FAFAF9"/>
<path d="M352.943 353.539C233.514 353.539 170.954 403.699 156.282 511.182C141.316 621.053 192.802 673.601 315.226 673.601C437.651 673.601 496.921 623.441 511.586 515.958C526.559 406.087 475.374 353.539 352.943 353.539ZM422.39 511.182C414.306 571.794 383.778 598.961 320.021 598.961C260.156 598.961 237.707 575.076 245.484 515.958C253.569 455.053 284.699 428.179 347.854 428.179C411.009 428.179 430.168 452.364 422.39 511.182Z" fill="#FAFAF9"/>
</svg>
